<?xml version="1.0" encoding="UTF-8"?>
<svg width="640" height="640" viewBox="0 0 640 640" xmlns="http://www.w3.org/2000/svg">
  <defs>
    <radialGradient id="g" cx="50%" cy="40%" r="70%">
      <stop offset="0%" stop-color="#fff9f9"/>
      <stop offset="100%" stop-color="#ffd1dc"/>
    </radialGradient>
    <filter id="shadow" x="-50%" y="-50%" width="200%" height="200%">
      <feDropShadow dx="0" dy="10" stdDeviation="12" flood-color="#caa"/>
    </filter>
  </defs>
  <rect x="20" y="20" width="600" height="600" rx="26" fill="url(#g)" stroke="#f4a4b5" stroke-width="8" filter="url(#shadow)"/>
  <!-- simple "cute girl" iconified -->
  <circle cx="320" cy="250" r="85" fill="#ffe0b2" stroke="#333" stroke-width="6"/>
  <path d="M260 240 q60 40 120 0" stroke="#333" stroke-width="6" fill="none" stroke-linecap="round"/>
  <circle cx="290" cy="250" r="8" fill="#333"/>
  <circle cx="350" cy="250" r="8" fill="#333"/>
  <path d="M300 280 q20 20 40 0" stroke="#e57373" stroke-width="6" fill="none" stroke-linecap="round"/>
  <path d="M160 470 q160 -160 320 0 v110 h-320z" fill="#f8cdd7" stroke="#333" stroke-width="6"/>
  <path d="M210 470 q110 -100 220 0" fill="none" stroke="#f39" stroke-width="8" stroke-opacity=".4"/>
  <!-- little hearts -->
  <g fill="#ff6b9e">
    <path d="M120 200 c-20 -35 30 -60 45 -20 c15 -40 65 -15 45 20 c-20 35 -45 50 -45 50 s-25 -15 -45 -50z"/>
    <path d="M470 170 c-16 -28 24 -49 36 -16 c12 -33 52 -12 36 16 c-16 28 -36 40 -36 40 s-20 -12 -36 -40z"/>
  </g>
</svg>
